<?xml version="1.0" standalone="no"?>
<!DOCTYPE svg PUBLIC "-//W3C//DTD SVG 20010904//EN"
 "http://www.w3.org/TR/2001/REC-SVG-20010904/DTD/svg10.dtd">
<svg version="1.0" xmlns="http://www.w3.org/2000/svg"
 width="784.000000pt" height="784.000000pt" viewBox="0 0 784.000000 784.000000"
 preserveAspectRatio="xMidYMid meet">
<metadata>
Created by potrace 1.14, written by Peter Selinger 2001-2017
</metadata>
<g transform="translate(0.000000,784.000000) scale(0.100000,-0.100000)"
fill="#000000" stroke="none">
<path d="M3186 7423 c-4 -4 -30 -8 -59 -9 -62 -1 -109 -11 -145 -30 -15 -8
-32 -14 -38 -14 -7 0 -15 -7 -18 -16 -4 -9 -9 -14 -13 -11 -8 9 -93 -51 -93
-66 0 -7 -15 -21 -34 -31 -21 -11 -32 -24 -29 -32 3 -9 -2 -14 -16 -14 -12 0
-21 -6 -21 -14 0 -7 -11 -30 -25 -50 -14 -20 -25 -43 -25 -50 0 -7 -9 -23 -20
-36 -11 -13 -21 -28 -21 -34 -1 -6 -3 -22 -5 -36 -3 -14 -5 -32 -6 -40 0 -8
-8 -24 -17 -34 -13 -16 -13 -18 -1 -11 13 8 13 6 2 -7 -7 -9 -12 -22 -11 -30
4 -32 -1 -49 -13 -42 -10 5 -10 4 -1 -6 9 -10 9 -18 1 -34 -16 -28 -19 -48 -7
-40 6 3 3 -11 -5 -31 -15 -34 -15 -37 1 -31 14 6 14 3 -3 -15 -11 -14 -13 -19
-4 -14 12 7 13 6 4 -6 -11 -15 -12 -58 -1 -75 3 -6 2 -25 -2 -42 -5 -17 -6
-33 -3 -37 11 -10 9 -49 -3 -57 -7 -5 -7 -8 0 -8 6 0 11 -22 10 -49 0 -27 3
-47 7 -45 4 2 9 0 12 -5 4 -5 2 -13 -4 -16 -7 -4 -8 -11 -2 -18 5 -7 12 -28
16 -47 3 -19 8 -42 10 -50 2 -8 0 -22 -5 -31 -5 -11 -2 -23 10 -35 9 -11 16
-25 13 -33 -2 -7 2 -17 9 -22 11 -7 9 -9 -6 -10 l-20 0 20 -9 c11 -5 14 -9 7
-9 -10 -1 -9 -10 7 -37 14 -23 20 -47 18 -70 -3 -19 -1 -34 2 -34 10 0 41 -56
35 -63 -3 -3 -2 -12 2 -19 5 -7 9 -19 10 -26 2 -7 12 -34 24 -60 13 -26 23
-52 24 -58 1 -7 8 -19 15 -27 7 -9 14 -22 15 -29 2 -7 11 -31 21 -53 17 -39
17 -40 -5 -55 -12 -8 -36 -27 -54 -42 -18 -15 -36 -25 -39 -22 -3 3 -13 -7
-23 -23 -10 -15 -30 -41 -45 -58 -16 -16 -28 -33 -29 -37 0 -5 0 -13 0 -18 0
-6 -3 -9 -7 -9 -23 4 -35 -4 -46 -28 -13 -32 -22 -44 -54 -79 -13 -14 -23 -28
-24 -32 0 -4 -5 -6 -11 -4 -5 1 -6 -3 -2 -9 4 -7 0 -17 -8 -23 -17 -13 -32
-46 -29 -65 1 -7 -2 -10 -7 -7 -5 3 -18 -12 -29 -32 -12 -20 -30 -54 -42 -75
-12 -21 -21 -44 -21 -52 0 -18 -20 -56 -37 -70 -7 -5 -14 -21 -15 -35 -2 -14
-9 -31 -16 -39 -8 -8 -11 -22 -9 -33 3 -11 1 -16 -6 -11 -6 4 -8 0 -4 -10 3
-9 1 -19 -5 -23 -7 -5 -8 -2 -3 7 5 8 4 11 0 6 -10 -8 -17 -39 -19 -79 0 -16
-5 -28 -10 -28 -4 0 -6 -9 -3 -21 3 -12 3 -18 -1 -15 -7 7 -34 -87 -35 -121
-1 -13 -4 -23 -7 -23 -3 0 -6 -10 -7 -22 -2 -27 -14 -106 -20 -128 -11 -40
-15 -69 -16 -107 -1 -24 -4 -43 -8 -43 -4 0 -6 -19 -5 -42 1 -24 -2 -49 -7
-55 -6 -8 -6 -13 0 -13 5 0 9 -9 9 -20 0 -11 -3 -20 -7 -20 -11 0 -7 -84 5
-99 8 -11 8 -13 -2 -7 -10 6 -12 -1 -9 -26 2 -19 6 -39 10 -45 4 -6 4 -14 -1
-16 -12 -8 -6 -115 7 -131 6 -8 11 -18 10 -22 -1 -5 0 -11 1 -14 1 -3 3 -25 5
-49 2 -24 9 -49 14 -54 6 -6 11 -18 11 -27 0 -9 11 -40 25 -68 14 -29 25 -58
25 -66 0 -8 6 -21 14 -28 12 -13 27 -46 32 -74 1 -7 10 -20 20 -31 11 -10 30
-34 44 -52 30 -39 147 -162 135 -142 -4 7 16 -5 46 -29 30 -23 56 -46 57 -51
2 -5 8 -9 14 -9 6 0 25 -11 42 -24 17 -12 46 -31 64 -40 17 -9 32 -21 32 -28
0 -17 -73 -87 -84 -81 -6 4 -8 3 -4 -2 4 -4 0 -14 -10 -22 -10 -9 -11 -12 -2
-7 8 4 -7 -14 -34 -39 -26 -26 -45 -47 -42 -47 3 0 -2 -9 -11 -19 -9 -11 -20
-18 -25 -15 -4 3 -5 -2 -2 -10 3 -8 1 -23 -6 -33 -9 -16 -10 -15 -5 7 4 16 -2
11 -15 -15 -12 -22 -22 -44 -23 -50 -1 -5 -9 -15 -17 -22 -8 -7 -11 -13 -7
-13 5 0 2 -7 -5 -15 -36 -40 -38 -43 -25 -48 9 -4 9 -6 0 -6 -7 -1 -13 -9 -13
-20 0 -10 -9 -30 -20 -44 -11 -14 -20 -34 -20 -45 0 -12 -4 -24 -10 -27 -11
-7 -9 -55 3 -55 4 0 -1 -10 -12 -22 -16 -17 -18 -24 -9 -35 7 -9 8 -17 2 -21
-8 -6 -12 -138 -4 -167 1 -5 1 -18 0 -28 -1 -10 4 -25 10 -33 10 -11 10 -14 1
-14 -8 0 -7 -6 3 -16 9 -8 16 -28 16 -44 0 -16 5 -32 12 -36 7 -5 8 -3 3 6 -5
8 -4 11 3 6 6 -4 9 -13 5 -21 -3 -9 1 -15 10 -15 8 0 18 -7 21 -16 10 -26 7
-29 -9 -8 -14 18 -15 17 -4 -8 7 -15 15 -26 18 -25 9 3 61 -50 61 -62 0 -12
111 -78 137 -83 10 -2 23 -9 29 -17 6 -8 20 -12 32 -9 12 3 26 0 32 -7 6 -7
24 -11 41 -9 18 2 28 0 24 -6 -3 -6 -2 -10 2 -10 7 0 9 -41 4 -92 -1 -7 -31
-14 -89 -21 -13 -2 -27 -9 -32 -16 -6 -11 -9 -11 -13 0 -4 10 -6 10 -6 2 -1
-7 -9 -13 -20 -13 -10 0 -35 -7 -55 -15 -20 -8 -36 -13 -36 -10 0 2 -12 0 -26
-5 -16 -6 -32 -7 -43 0 -12 6 -22 5 -29 -2 -7 -7 -12 -8 -12 -2 0 5 -15 11
-32 12 -18 2 -35 7 -36 13 -3 6 -9 6 -17 -1 -10 -8 -15 -8 -20 0 -5 8 -11 8
-21 -1 -11 -9 -14 -9 -14 1 0 9 -4 9 -12 2 -7 -5 -27 -12 -44 -15 -33 -5 -74
-27 -74 -39 0 -4 -13 -14 -29 -23 -30 -15 -61 -64 -61 -97 0 -10 -4 -18 -8
-18 -5 0 -9 -6 -10 -12 -7 -52 -6 -75 1 -85 8 -11 15 -48 19 -100 1 -7 6 -13
11 -13 5 0 7 -7 3 -15 -3 -8 -1 -15 3 -15 5 0 8 -8 7 -17 -4 -25 15 -63 31
-63 11 0 11 -4 2 -23 -6 -12 -8 -19 -4 -15 9 8 35 -14 28 -24 -2 -5 0 -8 4 -8
5 0 9 -10 10 -22 1 -11 6 -24 10 -27 5 -3 20 -22 33 -40 27 -39 90 -106 90
-97 0 4 9 2 20 -4 11 -6 17 -16 14 -22 -4 -7 -3 -8 4 -4 7 4 12 3 12 -2 0 -5
11 -12 25 -14 13 -3 22 -1 19 3 -3 5 0 9 5 9 6 0 11 -8 11 -17 0 -15 2 -16 10
-3 5 8 10 10 10 3 0 -10 37 -17 146 -26 22 -2 46 -7 54 -12 9 -6 11 -4 5 5 -6
9 0 11 24 5 17 -3 36 -3 43 2 7 4 34 8 59 9 26 1 52 4 58 8 6 4 15 5 20 1 5
-3 12 -1 15 3 3 5 18 8 33 7 15 -1 40 2 55 6 15 4 30 3 33 -2 4 -5 14 -5 25 1
10 5 25 7 33 4 8 -3 18 -1 21 5 4 5 18 8 32 5 14 -3 31 -1 38 5 14 11 78 17
92 8 6 -3 19 0 30 7 12 9 33 12 59 8 22 -3 52 -5 68 -5 15 1 27 -3 27 -8 0 -5
11 -9 25 -9 14 0 25 -4 25 -9 0 -4 28 -14 63 -20 34 -7 69 -16 78 -21 9 -4 36
-9 60 -11 24 -1 48 -5 53 -7 15 -8 67 -14 126 -14 30 0 58 -4 61 -9 3 -6 15
-6 31 0 14 5 31 5 38 1 8 -5 18 -6 22 -4 17 11 48 12 48 2 0 -7 4 -7 13 1 8 6
17 8 20 4 12 -11 207 -10 200 1 -4 6 1 5 10 -3 15 -12 21 -9 19 10 -1 3 5 6
13 6 8 0 12 -4 9 -9 -3 -4 0 -8 5 -8 6 0 11 6 11 13 0 6 7 3 16 -8 14 -18 16
-18 27 -4 7 9 18 14 26 11 8 -3 11 0 7 7 -5 8 0 8 18 1 14 -5 26 -6 26 -2 0 5
10 8 23 9 12 1 38 4 57 8 19 3 43 8 53 9 10 1 22 7 25 12 4 5 18 10 32 11 14
1 39 7 55 14 47 19 57 21 113 23 28 2 52 -2 52 -7 0 -5 7 -4 15 3 12 10 18 10
29 1 10 -8 16 -9 21 -1 3 5 11 10 16 10 6 0 7 -6 3 -12 -5 -8 0 -7 11 2 17 13
18 13 13 -1 -5 -13 -2 -16 12 -12 10 3 28 0 39 -7 12 -6 27 -7 34 -3 15 10 60
11 67 1 3 -3 25 -7 50 -9 25 -1 50 -5 55 -8 6 -3 33 -7 60 -9 113 -5 133 -7
129 -13 -2 -3 27 -5 63 -3 38 2 73 -2 80 -8 7 -6 13 -7 13 -2 0 5 15 10 33 10
50 3 119 21 127 34 4 6 10 11 14 11 16 -2 85 32 81 40 -3 4 7 16 22 26 44 28
49 34 104 144 29 57 57 106 61 107 4 2 8 12 8 23 0 10 5 19 11 19 5 0 7 5 4
10 -3 6 0 13 8 16 8 3 14 17 14 32 0 15 4 50 8 77 10 67 9 99 -4 103 -6 2 -11
17 -11 33 0 16 -4 29 -10 29 -5 0 -10 6 -10 14 0 15 -64 86 -78 86 -6 0 -13 7
-16 16 -4 10 -14 14 -26 11 -10 -3 -27 1 -37 8 -12 9 -23 10 -35 4 -11 -6 -18
-6 -18 -1 0 5 -15 8 -32 5 -18 -2 -50 -5 -71 -8 -20 -2 -44 -11 -53 -19 -16
-17 -34 -21 -34 -8 0 4 -12 9 -27 10 -14 1 -35 9 -45 19 -14 13 -18 13 -18 2
0 -11 -2 -12 -9 -1 -4 8 -11 13 -15 13 -3 -1 -7 -1 -8 0 -2 0 -16 2 -33 3 -16
1 -40 7 -52 14 -13 7 -23 11 -23 8 0 -3 -14 -1 -30 4 -19 5 -28 5 -25 -1 10
-15 -11 -10 -24 5 -9 11 -9 20 -2 35 7 13 8 22 1 26 -17 11 -11 37 11 42 14 4
18 11 14 22 -5 12 -3 13 6 4 9 -9 15 -8 26 3 16 16 48 20 38 4 -3 -5 7 -5 25
1 16 6 33 15 36 20 3 5 13 9 23 9 10 0 24 7 31 15 7 8 16 12 21 9 5 -3 9 0 9
6 0 6 4 9 8 6 5 -3 15 4 22 15 8 10 19 19 25 19 6 0 17 9 25 21 8 11 25 33 37
47 13 15 23 32 23 38 0 6 7 17 15 24 8 7 15 23 15 36 0 16 6 24 18 24 13 0 14
2 4 9 -11 6 -10 12 4 25 11 12 17 31 16 57 -1 21 3 39 8 39 12 0 5 146 -8 163
-5 7 -10 32 -11 57 -5 82 -10 104 -31 131 -22 30 -26 44 -10 34 6 -3 10 -2 10
3 0 6 -7 13 -16 16 -9 4 -14 13 -10 21 3 8 1 15 -4 15 -6 0 -10 7 -10 16 0 8
-4 12 -10 9 -6 -4 -7 1 -3 11 4 10 0 22 -11 29 -9 7 -16 17 -14 21 1 5 -6 24
-16 42 -11 22 -22 32 -32 28 -8 -3 -12 -2 -9 3 3 5 1 12 -5 16 -6 4 -8 9 -6
13 2 4 -2 16 -10 27 -8 10 -14 15 -14 10 0 -4 -9 2 -20 15 -25 28 -26 37 -2
20 9 -7 2 1 -15 17 -18 17 -33 34 -33 38 0 10 -41 45 -53 45 -5 0 -7 7 -3 15
3 9 0 15 -8 15 -15 0 -46 32 -46 47 0 12 64 53 83 53 7 0 28 16 47 35 19 19
40 35 47 35 7 0 13 5 13 11 0 6 7 9 14 6 9 -4 13 -1 10 6 -2 7 9 18 26 25 16
8 28 18 27 25 -1 6 7 13 18 15 19 4 69 55 71 73 1 5 2 14 3 21 0 6 4 9 7 5 7
-6 34 16 34 28 0 4 18 33 40 64 23 32 43 71 46 87 2 16 15 38 27 48 16 14 17
18 5 13 -16 -6 -16 -4 -5 16 6 12 14 24 17 27 5 5 8 16 16 54 2 10 7 23 12 30
13 16 22 57 11 50 -13 -8 -11 9 4 31 14 21 20 62 20 128 -1 20 4 37 9 37 6 0
7 8 3 18 -12 29 -13 102 -1 102 7 0 8 3 1 8 -11 8 -13 21 -4 37 5 11 4 46 -6
110 -3 22 -7 66 -7 98 -1 31 -5 57 -9 57 -9 0 -6 26 4 36 4 4 0 16 -10 26 -9
10 -13 18 -10 18 4 0 2 11 -3 24 -6 17 -5 26 3 30 7 2 5 5 -4 5 -20 1 -33 28
-18 37 6 4 6 11 -2 20 -8 10 -9 18 0 27 6 8 7 17 3 21 -4 4 -7 11 -7 14 -1 4
-7 18 -14 31 -7 13 -9 21 -4 18 5 -4 10 1 10 9 0 9 -6 13 -16 9 -12 -5 -13 -3
-4 6 9 9 6 25 -12 68 -13 31 -31 84 -42 118 -10 35 -22 63 -26 63 -5 0 -5 5
-2 10 3 6 2 10 -3 10 -8 0 -10 6 -14 49 -1 11 -6 17 -10 15 -8 -5 -12 11 -9
29 1 5 -3 6 -9 2 -14 -9 -30 37 -18 52 6 8 2 13 -12 18 -11 3 -18 11 -14 16 3
6 -2 16 -12 24 -11 7 -19 17 -19 22 -1 19 -43 99 -58 112 -10 7 -17 18 -17 23
0 7 -76 115 -110 155 -5 7 -10 15 -10 19 0 8 -126 135 -137 137 -4 1 -7 8 -5
15 2 6 -2 12 -7 12 -5 0 -24 13 -40 28 l-31 28 14 52 c7 29 11 52 9 52 -3 0 3
7 11 16 9 8 16 23 16 31 0 9 8 25 18 36 12 15 13 19 2 13 -12 -6 -11 -4 1 6 9
7 22 38 29 68 8 30 24 76 37 102 13 28 18 48 12 50 -6 2 -2 14 9 28 11 14 18
35 15 49 -2 14 2 28 8 32 7 4 13 26 13 48 1 23 4 41 9 41 4 0 6 3 5 8 -1 4 3
23 8 42 6 19 10 56 9 83 -1 26 2 47 6 47 5 0 7 21 5 48 -2 26 0 53 6 60 6 6 7
12 2 12 -5 0 -2 5 6 10 8 5 10 10 4 10 -12 0 -10 142 1 160 3 5 0 12 -6 16 -8
5 -9 3 -4 -6 5 -8 4 -11 -2 -7 -5 3 -8 20 -5 38 3 22 1 30 -7 25 -16 -10 -14
19 4 54 10 19 11 31 5 35 -6 4 -8 11 -5 16 4 5 1 9 -6 9 -7 0 -9 10 -6 26 2
14 -1 31 -8 38 -7 6 -13 24 -14 39 -3 50 -4 57 -13 57 -4 0 -8 9 -8 19 0 11
-4 21 -9 23 -5 2 -12 18 -14 37 -3 18 -14 43 -24 55 -23 25 -50 68 -51 79 0 5
-13 19 -29 33 -15 13 -24 24 -20 24 4 0 2 6 -5 14 -7 8 -16 12 -19 10 -4 -2
-9 2 -12 10 -6 14 -31 30 -94 60 -18 8 -33 20 -33 26 0 6 -4 9 -9 5 -5 -3 -17
3 -27 12 -10 10 -32 17 -55 17 -22 0 -35 4 -32 9 3 6 1 7 -5 3 -6 -4 -26 -1
-44 7 -18 7 -42 12 -53 10 -11 -1 -36 -5 -55 -7 -19 -3 -49 -5 -67 -5 -18 -1
-44 -11 -61 -26 -20 -17 -33 -22 -37 -15 -5 8 -13 6 -26 -6 -10 -9 -19 -14
-19 -10 0 4 -7 1 -15 -6 -35 -31 -45 -38 -60 -38 -8 0 -15 -4 -15 -10 0 -5 -5
-10 -10 -10 -10 0 -72 -60 -142 -139 -21 -23 -38 -51 -38 -62 0 -10 -4 -19
-10 -19 -5 0 -10 -5 -10 -12 0 -6 -11 -26 -25 -44 -16 -21 -22 -39 -18 -50 4
-12 3 -15 -5 -10 -8 5 -10 2 -6 -8 3 -9 1 -16 -5 -16 -6 0 -10 -3 -10 -7 1 -5
0 -11 -1 -15 -1 -5 -3 -11 -4 -15 -7 -30 -20 -59 -30 -65 -6 -4 -12 -20 -13
-35 -4 -53 -8 -68 -21 -82 -10 -10 -11 -16 -2 -21 9 -6 9 -9 1 -14 -6 -4 -9
-11 -6 -16 3 -5 1 -11 -5 -15 -5 -3 -10 -19 -10 -35 0 -16 -4 -32 -10 -35 -15
-9 -13 -38 3 -29 6 4 3 -3 -8 -16 -11 -13 -14 -20 -6 -15 12 7 13 2 6 -26 -4
-19 -8 -44 -7 -56 0 -13 -4 -21 -8 -18 -4 3 -10 -2 -14 -10 -3 -8 -1 -15 4
-15 5 0 6 -7 3 -17 -5 -12 -3 -14 7 -8 10 6 11 4 4 -6 -5 -8 -9 -27 -10 -44
-2 -104 -4 -116 -16 -109 -10 6 -10 4 0 -8 8 -10 9 -19 3 -22 -10 -7 -9 -31 2
-42 3 -4 2 -15 -3 -25 -6 -10 -9 -36 -7 -59 2 -23 0 -43 -5 -46 -4 -3 -8 -13
-8 -22 0 -15 2 -15 10 -2 6 9 10 10 10 3 0 -17 -17 -25 -63 -29 -23 -2 -52 -6
-64 -9 -20 -5 -23 -1 -24 22 -1 16 -1 34 0 41 1 6 -2 28 -8 47 -5 20 -5 35 0
37 5 2 5 16 0 36 -6 20 -6 32 0 32 15 0 10 36 -6 50 -11 9 -13 16 -5 24 12 12
13 63 1 70 -4 3 -8 20 -8 38 0 18 -3 40 -7 48 -10 25 -14 80 -5 80 4 0 5 10 3
23 -6 21 -11 54 -13 70 -1 5 -5 6 -10 3 -5 -4 -7 3 -4 14 3 11 0 27 -7 35 -7
8 -10 21 -7 30 4 8 2 17 -3 20 -4 3 -6 19 -4 35 3 17 1 30 -5 30 -6 0 -11 14
-11 30 0 17 -4 30 -9 30 -6 0 -9 12 -7 28 1 15 -4 32 -11 37 -7 6 -14 23 -17
39 -3 16 -12 36 -21 46 -8 9 -15 23 -15 31 0 29 -52 118 -93 161 -23 24 -43
46 -43 51 -1 4 -2 11 -3 16 0 5 -10 13 -21 16 -11 3 -20 11 -20 16 0 6 -7 17
-15 25 -8 9 -15 13 -15 9 0 -3 -11 4 -25 17 -40 38 -50 45 -76 53 -13 4 -44
19 -69 33 -25 15 -47 27 -50 27 -3 0 -11 4 -19 9 -11 7 -12 6 -6 -5 7 -11 6
-12 -6 -3 -8 6 -21 12 -29 12 -58 5 -76 8 -81 15 -3 4 -9 4 -13 0z"/>
<path d="M5555 2560 c3 -5 8 -10 11 -10 2 0 4 5 4 10 0 6 -5 10 -11 10 -5 0
-7 -4 -4 -10z"/>
</g>
</svg>
